<svg xmlns="http://www.w3.org/2000/svg" width="184" height="32" viewBox="0 0 184 32" fill="none">
    <path d="M42.3349 6.08959H53.8345C56.3174 6.08959 58.1661 6.61518 59.3804 7.66637C60.6128 8.69942 61.229 10.2762 61.229 12.3967C61.229 13.1579 61.1656 13.9191 61.0387 14.6803L60.3047 19.3018C60.0328 20.9874 59.4347 22.4826 58.5104 23.7875C57.6042 25.0743 56.4443 26.0801 55.0306 26.8051C53.617 27.5119 52.0674 27.8653 50.3819 27.8653H38.8823L42.3349 6.08959ZM50.1916 21.0689C51.1703 21.0689 51.9587 20.8424 52.5567 20.3893C53.1548 19.9181 53.5264 19.2203 53.6714 18.296L54.052 15.9036C54.1063 15.5412 54.1335 15.2149 54.1335 14.9249C54.1335 14.1819 53.9251 13.6563 53.5082 13.3482C53.1095 13.0401 52.4389 12.886 51.4965 12.886H48.0711L46.7662 21.0689H50.1916Z" fill="#2A95DB"/>
    <path d="M76.765 25.5546H67.3587L66.0266 27.8653H59.2302L71.7356 6.11678H78.532L84.1323 27.8653H77.3359L76.765 25.5546ZM75.3513 20.1446L73.8561 14.2725L70.4579 20.1446H75.3513Z" fill="#2A95DB"/>
    <path d="M90.0394 6.11678H96.8359L93.3833 27.8653H86.5869L90.0394 6.11678Z" fill="#2A95DB"/>
    <path d="M120.829 6.08959L117.377 27.8653H110.58L105.197 16.7192L103.43 27.8925H96.6339L100.086 6.11678H106.883L112.266 17.2629L114.033 6.08959H120.829Z" fill="#2A95DB"/>
    <path d="M121.502 21.0961H129.929L130.065 20.2533L126.123 18.8941C124.945 18.441 124.03 17.7885 123.377 16.9367C122.743 16.0667 122.426 15.0065 122.426 13.756C122.426 13.3754 122.453 12.9857 122.507 12.587C122.707 11.3364 123.178 10.2218 123.921 9.24313C124.664 8.26445 125.616 7.50325 126.776 6.95954C127.954 6.3977 129.259 6.11678 130.69 6.11678H141.32L140.26 12.9132H131.234L131.125 13.5385L136.861 15.7949C137.713 16.1574 138.348 16.692 138.764 17.3988C139.181 18.0875 139.39 18.8759 139.39 19.764C139.39 20.0902 139.363 20.4165 139.308 20.7427C139.127 21.9026 138.656 23.0353 137.895 24.1409C137.133 25.2464 136.155 26.1526 134.958 26.8595C133.762 27.5482 132.466 27.8925 131.071 27.8925H120.414L121.502 21.0961Z" fill="#2A95DB"/>
    <path d="M149.206 12.9132H143.279L144.34 6.11678H162.908L161.847 12.9132H155.921L153.61 27.8653H146.814L149.206 12.9132Z" fill="#2A95DB"/>
    <path d="M176.168 25.5546H166.762L165.43 27.8653H158.633L171.139 6.11678H177.935L183.535 27.8653H176.739L176.168 25.5546ZM174.754 20.1446L173.259 14.2725L169.861 20.1446H174.754Z" fill="#2A95DB"/>
    <path fill-rule="evenodd" clip-rule="evenodd" d="M1.22141 17.8676L4.84004 18.0931L0.296486 30.2743C-0.248335 31.668 0.00760406 32.1444 0.658855 31.5185L14.4998 15.2677C15.0649 14.5885 14.6139 13.3443 13.5952 13.3443H9.18593L15.179 1.80931C15.6326 1.01869 15.0649 0 14.1603 0H6.65188C6.08679 0 5.6332 0.339563 5.5217 0.790624L0.433325 16.3978C0.20526 16.9629 0.430791 17.8676 1.22141 17.8676Z" fill="#2A95DB"/>
    <path d="M30.6163 2.43271C28.8273 0.909742 26.1158 0.146993 22.482 0.146993H16.9147C17.2239 0.962957 17.1706 1.88282 16.7449 2.65317L14.0538 7.8277H17.5558C19.4361 7.8277 20.84 8.22301 21.7649 9.0111C22.6923 9.79919 23.1535 10.9978 23.1535 12.6018C23.1535 13.1771 23.1054 13.7548 23.0091 14.3301L22.4541 17.8296C22.2489 19.1068 21.7978 20.2344 21.106 21.2151C20.4117 22.1958 19.5324 22.9585 18.4605 23.5008C17.3911 24.0431 16.2178 24.3142 14.9407 24.3142H9.12757L2.58212 32H17.4317C19.8973 32 22.1653 31.478 24.233 30.4289C26.3008 29.3823 28.0037 27.91 29.3442 26.0146C30.6822 24.1191 31.5514 21.9373 31.9492 19.4717L33.0237 12.7108C33.2087 11.5984 33.3024 10.4834 33.3024 9.37093C33.2999 6.26926 32.4054 3.95567 30.6163 2.43271Z" fill="#2A95DB"/>
</svg>