<svg width="80" height="17" viewBox="0 0 80 17" fill="none"
    xmlns="http://www.w3.org/2000/svg">
    <g clip-path="url(#clip0)">
        <path d="M77.7281 5.72259C77.0475 5.04044 76.3676 4.35775 75.6881 3.67452C75.0369 3.01761 74.3759 2.3664 73.6417 1.80228C72.9403 1.25167 72.1573 0.813886 71.3209 0.504741C70.4799 0.208658 69.599 0.0412549 68.7079 0.00819033C67.7936 -0.0309036 66.8786 0.0701177 65.9948 0.307749C65.1383 0.538714 64.3253 0.907981 63.5878 1.40097C62.8823 1.8765 62.2499 2.45238 61.7107 3.11041C61.1629 3.77322 60.7308 4.52369 60.4326 5.33023C60.2846 5.73791 60.1707 6.15722 60.0924 6.58382H51.4386V10.4439H55.0202C54.4154 11.4207 53.3922 11.9783 51.927 11.9783C49.7413 11.9783 48.2069 10.3275 48.2069 8.14185C48.2069 5.95621 49.7177 4.30376 51.905 4.30376C53.1374 4.30376 54.1134 4.67576 54.6955 5.83818L59.6715 4.65216C58.6231 1.74612 55.6495 5.01698e-05 51.905 5.01698e-05C47.9855 5.01698e-05 44.7921 2.37454 43.7396 5.71445C43.7396 5.70143 43.7396 5.6884 43.7396 5.67538C43.7396 2.49013 41.4839 0.350892 38.1123 0.350892H29.6009V14.9967L23.81 0.350892H18.3927L12.5562 15.1082V11.9531H4.81328V9.93106H11.8138V6.34938H4.81328V4.32655H12.4398V0.350892H0V15.9295H17.3695L18.1135 13.8131H24.0892L24.8332 15.9295H34.4158V11.1399H34.7414L38.7871 15.9295H44.5536L40.1359 10.7679C41.6964 10.2314 42.8352 9.16018 43.3806 7.72263C43.3733 7.86101 43.37 8.00021 43.37 8.14022C43.37 12.6987 47.1145 16.2804 51.9034 16.2804C56.2103 16.2804 59.4127 13.7122 60.1087 9.78779C60.1866 10.1845 60.2955 10.5745 60.4343 10.9543C60.7324 11.7608 61.1645 12.5113 61.7123 13.1741C62.2516 13.8321 62.8839 14.408 63.5894 14.8835C64.3269 15.3765 65.1399 15.7458 65.9965 15.9768C66.8803 16.2144 67.7952 16.3154 68.7096 16.2763C69.6006 16.2433 70.4815 16.0759 71.3226 15.7798C72.1577 15.4692 72.9393 15.0304 73.6393 14.479C74.3719 13.914 75.0345 13.2628 75.6857 12.6067C76.3646 11.923 77.0446 11.2403 77.7256 10.5587C78.4094 9.87245 79.9967 8.14673 79.9976 8.14103C79.9984 8.13534 78.4118 6.40881 77.7281 5.72259ZM19.5315 9.83745L21.1132 5.39617L22.6712 9.83745H19.5315ZM37.0663 7.419H34.4158V4.25736H37.0663C38.2759 4.25736 39.0199 4.88497 39.0199 5.79178C39.0199 6.79139 38.2759 7.419 37.0663 7.419ZM71.7752 10.2331C71.159 10.8411 70.4915 11.463 69.6669 11.7488C69.2122 11.9035 68.7348 11.9805 68.2545 11.9767C68.2146 11.9767 68.1731 11.9767 68.1357 11.9767C66.3025 11.8847 64.8422 10.2013 64.8422 8.14022C64.8422 6.07913 66.3025 4.39574 68.1349 4.30701C68.1748 4.30701 68.2163 4.30701 68.2545 4.30701C68.7348 4.30317 69.2122 4.38022 69.6669 4.53494C70.4915 4.82066 71.159 5.44257 71.7752 6.05064C72.1472 6.4145 73.8061 8.14022 73.8061 8.14022C73.8061 8.14022 72.1472 9.86594 71.7752 10.2331Z" fill="#FF5E2B"/>
    </g>
    <defs>
        <clipPath id="clip0">
            <rect width="80" height="16.2803" fill="white"/>
        </clipPath>
    </defs>
</svg>
