<svg width="84" height="32" viewBox="0 0 84 32" fill="none" xmlns="http://www.w3.org/2000/svg">
<path fill-rule="evenodd" clip-rule="evenodd" d="M7.99819 4.46711H4.66737C4.40781 4.44912 4.14787 4.49628 3.91116 4.60428C3.70035 4.81509 3.70268 5.05323 3.7062 5.41263C3.70667 5.46098 3.70716 5.51152 3.70716 5.56448V10.3022C3.70716 10.3367 3.70673 10.3723 3.70628 10.4085C3.70273 10.6971 3.69867 11.0268 3.91116 11.1956C4.13912 11.3292 4.40701 11.3778 4.66737 11.3327C5.25123 11.3679 6.28178 11.3679 6.59129 11.3679C7.07315 11.3679 7.10481 11.5403 7.10481 13.0492C7.10481 14.558 7.10481 14.6987 6.59129 14.6987C6.52139 14.6987 6.40695 14.6965 6.26556 14.6936H6.26549C5.85198 14.6854 5.20795 14.6725 4.77288 14.6987C4.48278 14.6676 4.18939 14.7025 3.91468 14.8007C3.65422 14.9754 3.66275 15.3169 3.672 15.6869C3.67374 15.7566 3.67551 15.8273 3.67551 15.8981V24.5505C3.67551 25.1015 3.4312 25.1012 1.9317 25.0994L1.64958 25.0992L1.40417 25.0994C0.183468 25.1013 0 25.1016 0 24.5857V2.16683C0 1.72015 0 1.61815 0.207517 1.37546C0.286566 1.26759 0.394722 1.1845 0.519311 1.13591C0.6439 1.08732 0.77976 1.07525 0.910963 1.10111H8.12129C8.53281 1.10111 8.53281 1.34028 8.53281 2.71551V2.71552C8.54688 4.29476 8.5117 4.46711 7.99819 4.46711ZM11.5682 25.1344H11.5681C9.95375 25.1344 9.85174 25.1344 9.85174 24.6525V1.68498C9.85174 1.17147 10.0241 1.13629 11.5682 1.13629C13.2846 1.13629 13.4921 1.17146 13.4921 1.72015V24.5822C13.4921 25.0992 13.4217 25.1344 11.5682 25.1344ZM18.3987 32C19.2921 32 19.9463 31.9648 20.0483 31.5533C20.4294 30.0133 20.8061 28.4929 21.1817 26.9766L21.1851 26.9629L21.1896 26.9445C22.6035 21.2374 24.0033 15.5871 25.5738 9.16613C25.6829 8.78627 24.7121 8.68427 23.9243 8.68427C22.8937 8.68427 22.1058 8.71944 22.0355 9.09579C21.6036 11.7976 21.2786 13.5844 20.8579 15.8965L20.8579 15.8965L20.8579 15.8966C20.744 16.5221 20.6232 17.1861 20.4914 17.917C20.4886 17.9294 20.4857 17.9426 20.4827 17.9563C20.4523 18.0954 20.4091 18.2934 20.2523 18.2934C20.0799 18.2934 20.0447 18.0436 20.0447 17.9416C19.7986 16.4025 19.5763 15.1218 19.3518 13.828L19.3517 13.8278L19.3517 13.8278L19.3517 13.8275L19.3516 13.8272C19.1046 12.404 18.8549 10.9649 18.5675 9.14855C18.5077 8.70186 17.6741 8.66669 16.7491 8.66669C15.8241 8.66669 14.8955 8.69131 14.9659 9.04303C15.7356 12.4447 16.3967 15.1987 17.1104 18.172C17.463 19.6412 17.8285 21.1639 18.2263 22.8447C18.275 23.1942 18.2985 23.5469 18.2967 23.8998C18.317 24.2803 18.2826 24.6617 18.1947 25.0324C17.8012 26.9654 17.4992 28.3964 17.122 30.1837C17.0373 30.585 16.9488 31.0043 16.8546 31.4513C16.7491 31.9648 17.6952 32 18.3987 32ZM40.1915 22.2854C39.0237 24.3957 38.2359 25.1343 35.7633 25.1343C32.9495 25.1343 30.7864 23.4531 30.7864 20.3298V18.4059C30.7864 18.0964 31.0959 18.0542 32.4676 18.0542C33.8393 18.0542 34.4935 18.0542 34.4935 18.3285V19.7706C34.4935 21.0403 34.7327 21.7965 35.7633 21.7965C36.6918 21.7965 36.931 21.093 36.9978 20.5268C37.0646 19.9605 37.0681 19.4294 37.0681 18.9475C37.0681 17.6566 35.8554 16.1474 34.4784 14.4339C32.6702 12.1839 30.5789 9.58149 30.5789 6.65832C30.6317 5.50067 30.9239 4.36654 31.4371 3.3275C31.8458 2.63045 32.4342 2.05584 33.1407 1.66362C33.8472 1.27139 34.646 1.07592 35.4537 1.09757C38.373 1.09757 40.3286 3.26067 40.3286 5.76494V7.44617C40.3286 7.65862 39.9484 7.65739 39.0451 7.65446C38.9315 7.65409 38.8095 7.6537 38.679 7.6537C37.3742 7.6537 36.6883 7.65369 36.6883 7.41452V5.84935C36.6883 4.88915 36.0376 4.30529 35.4537 4.30529C35.1613 4.32217 34.8841 4.44133 34.6706 4.64194C34.4572 4.84255 34.321 5.11182 34.286 5.40266C34.2205 5.85701 34.1864 6.31534 34.184 6.77439C34.184 8.63714 35.5697 10.2308 37.0669 11.9528C38.8265 13.9765 40.7401 16.1775 40.7401 19.2008C40.7401 20.2243 40.603 21.5292 40.1915 22.2854ZM43.0404 20.2102C43.0404 23.2104 44.3453 25.1344 48.6363 25.1344C48.9488 25.1344 48.9491 25.0216 48.9517 23.8996C48.9519 23.784 48.9522 23.6578 48.9529 23.5199C48.9529 21.9724 48.8403 21.7332 48.6011 21.7332C47.4686 21.7332 46.7124 21.392 46.7124 19.7424V12.8522C46.6935 12.6265 46.7411 12.4003 46.8496 12.2015C47.0219 12.0291 47.9504 12.0291 48.4639 12.0291H48.464C48.8755 12.0291 48.8755 11.892 48.8755 10.6223V10.6223C48.8755 9.24701 48.7383 9.00784 48.362 9.00784C46.8847 9.00784 46.7124 8.94101 46.7124 8.35715V6.53874C46.7124 5.99005 46.5049 5.99005 44.8588 5.99005C43.2127 5.99005 43.0404 5.99005 43.0404 6.47191V8.36067C43.0404 8.96211 43.0052 9.06411 42.045 9.06411C41.7355 9.06411 41.5983 9.20129 41.5983 10.6434C41.5983 11.8462 41.6335 11.9834 42.0098 11.9834C42.6289 11.9834 43.0404 12.0889 43.0404 12.4653V20.2102ZM57.3204 11.9834C57.1128 12.2578 56.6661 12.2578 56.427 12.2578C55.2593 12.2578 54.4362 13.2883 54.4362 14.6249V24.751C54.4362 25.1273 54.2287 25.1273 52.4806 25.1273C51.0034 25.1273 50.7642 25.0922 50.7642 24.7756V8.93046C50.7642 8.67584 50.9737 8.67828 51.7352 8.68716H51.7353H51.7353H51.7354C51.8996 8.68907 52.0894 8.69129 52.3083 8.69129C52.5726 8.69129 52.8001 8.68708 52.9955 8.68346C53.9161 8.66643 54.1267 8.66254 54.1267 9.17315C54.1267 9.58466 54.1619 9.89418 54.2639 9.87659C54.5797 9.48384 54.9831 9.17049 55.4418 8.96162C55.9005 8.75274 56.4017 8.65413 56.9053 8.6737L56.9499 8.67354L56.9723 8.67338C57.3935 8.67028 57.454 8.66983 57.454 9.97859C57.4575 11.4031 57.4259 11.8462 57.3204 11.9834ZM65.0477 24.6208C65.0477 25.1343 65.2869 25.1343 66.9013 25.1343C67.0642 25.1343 67.2106 25.1353 67.3421 25.1362C68.2362 25.1422 68.4432 25.1436 68.4524 24.8002V8.97266C68.4524 8.59632 68.178 8.59631 66.8732 8.59631C65.3959 8.59631 65.0196 8.63148 65.0196 9.07817C65.0196 9.6972 64.9844 9.93638 64.7452 9.62686C64.5174 9.32971 64.2269 9.08645 63.8944 8.9144C63.5618 8.74235 63.1954 8.64576 62.8213 8.63149C60.7954 8.63149 58.4951 9.90472 58.4951 13.5767V20.2595C58.4951 23.5903 60.3135 25.1343 62.853 25.1343C63.9149 25.1343 64.4396 24.4929 64.7367 24.1296C64.7761 24.0814 64.8116 24.0381 64.8437 24.0018C65.068 23.8638 65.0619 24.0666 65.0522 24.3893V24.3897C65.05 24.4616 65.0477 24.5395 65.0477 24.6208ZM63.4685 12.1944C64.601 12.1944 64.8402 13.4044 64.8402 14.4595V19.1973C64.8402 20.5021 64.601 21.4975 63.4685 21.4975C62.3359 21.4975 62.0968 20.5021 62.0968 19.1973V14.4595C62.0968 13.3973 62.3359 12.1944 63.4685 12.1944ZM72.4269 25.1344C70.7105 25.1344 70.6683 25.1344 70.6683 24.5857V9.20483C70.6683 8.65614 70.8054 8.62097 72.4269 8.62097C74.2101 8.62097 74.3508 8.62097 74.3508 9.24V24.5154C74.3508 25.1344 74.2804 25.1344 72.4269 25.1344ZM77.337 20.2102C77.337 23.2104 78.6419 25.1344 82.9329 25.1344C83.2448 25.1344 83.2451 25.0197 83.2482 23.8715C83.2485 23.7637 83.2488 23.6467 83.2494 23.5199C83.2494 21.9724 83.1369 21.7332 82.8977 21.7332C81.7652 21.7332 81.009 21.392 81.009 19.7424V12.8522C80.99 12.6265 81.0377 12.4003 81.1461 12.2015C81.3185 12.0291 82.247 12.0291 82.7605 12.0291C83.172 12.0291 83.1721 11.892 83.1721 10.6223C83.1721 9.24701 83.0349 9.00784 82.6585 9.00784C81.1813 9.00784 81.009 8.94101 81.009 8.35715V6.53874C81.009 5.99005 80.8014 5.99005 79.1554 5.99005C77.5093 5.99005 77.337 5.99005 77.337 6.47191V8.36067C77.337 8.96211 77.3018 9.06411 76.3416 9.06411C76.0321 9.06411 75.8949 9.20129 75.8949 10.6434C75.8949 11.8462 75.9301 11.9834 76.3064 11.9834C76.9254 11.9834 77.337 12.0889 77.337 12.4653V20.2102Z" fill="#56CCF2"/>
<path d="M80.7733 0.0881421C80.3653 -0.143995 79.4613 0.116282 78.8212 0.47504L76.7355 1.64628L71.836 0.615727C71.7911 0.603589 71.7436 0.606324 71.7005 0.62352C71.6573 0.640716 71.6209 0.671445 71.5967 0.711091C71.5726 0.750737 71.5619 0.797163 71.5663 0.84339C71.5708 0.889616 71.5901 0.933148 71.6214 0.96745L73.7318 3.65462L70.7245 5.82827C70.6883 5.85509 70.6615 5.89261 70.6479 5.93552C70.6342 5.97843 70.6344 6.02455 70.6484 6.06735C70.6624 6.11015 70.6895 6.14745 70.7259 6.17398C70.7623 6.20051 70.8061 6.21492 70.8511 6.21516C72.0118 6.21516 72.0118 6.21516 73.2499 6.21516L80.1648 1.55483C80.7064 1.2031 81.0195 0.78104 81.0089 0.464489C81.0073 0.386318 80.9846 0.310044 80.9431 0.243776C80.9016 0.177508 80.8429 0.123723 80.7733 0.0881421Z" fill="#DDDDDD"/>
</svg>
