<?xml version="1.0" standalone="no"?>
<!DOCTYPE svg PUBLIC "-//W3C//DTD SVG 20010904//EN"
 "http://www.w3.org/TR/2001/REC-SVG-20010904/DTD/svg10.dtd">
<svg version="1.0" xmlns="http://www.w3.org/2000/svg"
 width="225.000000pt" height="225.000000pt" viewBox="0 0 225.000000 225.000000"
 preserveAspectRatio="xMidYMid meet">

<g transform="translate(0.000000,225.000000) scale(0.100000,-0.100000)"
fill="#000000" stroke="none">
<path d="M890 1697 c0 -2 22 -42 50 -88 27 -46 51 -88 53 -92 1 -4 51 -6 110
-5 l107 3 -52 93 -53 92 -107 0 c-60 0 -108 -2 -108 -3z"/>
<path d="M1247 1463 c15 -27 39 -68 53 -93 l26 -45 108 -3 c59 -1 106 1 104 6
-1 4 -25 47 -52 95 l-50 87 -108 0 -109 0 28 -47z"/>
<path d="M964 1063 c-20 -38 -46 -80 -56 -95 l-19 -28 109 0 110 0 51 91 c28
51 51 93 51 95 0 2 -47 4 -104 4 l-104 0 -38 -67z"/>
<path d="M1050 675 c0 -77 4 -125 10 -125 6 0 10 13 10 28 0 16 9 37 19 46 18
16 20 15 52 -28 18 -25 38 -46 46 -46 8 0 -1 20 -23 51 l-37 50 33 34 c56 58
23 53 -35 -5 l-55 -54 0 87 c0 51 -4 87 -10 87 -6 0 -10 -48 -10 -125z"/>
<path d="M1270 675 c0 -77 4 -125 10 -125 6 0 10 12 10 26 0 24 23 53 42 54 4
0 20 -18 34 -40 15 -22 33 -40 41 -40 10 0 2 17 -22 51 l-38 50 33 35 c51 52
28 52 -28 0 -27 -25 -52 -46 -56 -46 -3 0 -6 36 -6 80 0 47 -4 80 -10 80 -6 0
-10 -48 -10 -125z"/>
<path d="M1490 780 c0 -12 5 -17 13 -14 8 3 14 11 14 19 0 8 -6 15 -14 15 -7
0 -13 -9 -13 -20z"/>
<path d="M1770 786 c0 -8 5 -18 10 -21 6 -3 10 3 10 14 0 12 -4 21 -10 21 -5
0 -10 -6 -10 -14z"/>
<path d="M530 670 c0 -100 3 -120 15 -120 12 0 15 13 15 55 l0 55 70 0 70 0 0
-55 c0 -42 3 -55 15 -55 13 0 15 20 15 120 0 98 -3 120 -14 120 -11 0 -16 -15
-18 -52 l-3 -53 -67 -3 -68 -3 0 56 c0 42 -3 55 -15 55 -12 0 -15 -20 -15
-120z"/>
<path d="M843 720 c-13 -5 -23 -14 -23 -20 0 -7 6 -8 19 0 43 23 91 6 91 -32
0 -15 -8 -18 -45 -18 -32 0 -51 -6 -65 -20 -24 -24 -24 -29 -4 -58 18 -26 69
-30 102 -6 20 14 22 14 22 0 0 -9 7 -16 16 -16 11 0 14 5 10 16 -3 9 -6 38 -6
65 0 79 -50 116 -117 89z m82 -110 c0 -32 -45 -56 -75 -40 -44 24 -15 73 40
68 30 -3 35 -7 35 -28z"/>
<path d="M1490 641 c0 -66 3 -91 13 -91 16 0 14 173 -2 178 -7 2 -11 -26 -11
-87z"/>
<path d="M1608 640 c-2 -67 0 -90 10 -90 8 0 12 18 12 58 0 58 18 92 48 92 15
0 25 17 13 24 -5 3 -20 -4 -35 -15 -21 -16 -26 -17 -26 -5 0 8 -4 17 -9 21 -6
3 -11 -33 -13 -85z"/>
<path d="M1770 640 c0 -53 4 -90 10 -90 6 0 10 37 10 90 0 53 -4 90 -10 90 -6
0 -10 -37 -10 -90z"/>
</g>
</svg>
