<svg width="183.59999999999997" height="50.57817559839263" viewBox="0 0 369.9130434782609 101.90374111753448" class="css-1j8o68f"><defs id="SvgjsDefs1328"></defs><g id="SvgjsG1329" featurekey="PG4fjM-0" transform="matrix(29.00761195148554,0,0,29.00761195148554,-41.36485461515456,-21.552654836207413)" fill="#069C54"><g xmlns="http://www.w3.org/2000/svg"><g><g><circle fill="#069C54" cx="2.754" cy="4.085" r="0.171"></circle></g></g><g><g><circle fill="#069C54" cx="3.217" cy="3.79" r="0.171"></circle></g></g><g><g><circle fill="#069C54" cx="3.879" cy="2.493" r="0.17"></circle></g></g><g><g><circle fill="#069C54" cx="3.591" cy="2.07" r="0.171"></circle></g></g><g><g><circle fill="#069C54" cx="3.217" cy="1.198" r="0.171"></circle></g></g><g><g><circle fill="#069C54" cx="2.754" cy="0.914" r="0.171"></circle></g></g><g><g><circle fill="#069C54" cx="1.597" cy="1.283" r="0.171"></circle></g></g><g><g><circle fill="#069C54" cx="1.689" cy="2.532" r="0.171"></circle></g></g><g><g><circle fill="#069C54" cx="1.689" cy="3.229" r="0.17"></circle></g></g><g><g><circle fill="#069C54" cx="2.188" cy="3.742" r="0.171"></circle></g></g><g><g><path fill="#069C54" d="M2.464,2.558c0.065-0.068,0.175-0.068,0.24,0c0.066,0.065,0.066,0.174,0,0.239     c-0.065,0.069-0.175,0.069-0.24,0C2.396,2.731,2.396,2.623,2.464,2.558z"></path></g></g><g><g><polygon fill="#069C54" points="2.829,4.113 2.682,4.113 2.682,3.609 2.046,2.975 2.046,2.16 2.678,1.531 2.678,0.902      2.825,0.902 2.825,1.592 2.195,2.223 2.195,2.914 2.829,3.548    "></polygon></g></g><g><g><polygon fill="#069C54" points="2.807,3.63 2.702,3.527 3.104,3.124 3.104,2.515 2.725,2.134 3.145,1.715 3.145,1.198      3.291,1.198 3.291,1.777 2.935,2.134 3.253,2.452 3.253,3.187    "></polygon></g></g><g><g><rect x="2.468" y="2.9" transform="matrix(0.7071 0.7071 -0.7071 0.7071 2.9341 -1.1352)" fill="#069C54" width="0.739" height="0.148"></rect></g></g><g><g><polygon fill="#069C54" points="2.067,2.211 1.523,1.666 1.523,1.283 1.671,1.283 1.671,1.605 2.173,2.105    "></polygon></g></g><g><g><rect x="3.311" y="1.985" transform="matrix(0.7005 0.7137 -0.7137 0.7005 2.6385 -1.7338)" fill="#069C54" width="0.148" height="0.583"></rect></g></g><g><g><rect x="1.6" y="2.654" transform="matrix(0.7087 0.7055 -0.7055 0.7087 2.4802 -0.5489)" fill="#069C54" width="0.61" height="0.151"></rect></g></g><g><g><path fill="#069C54" d="M1.688,3.496"></path></g></g><g><g><polygon fill="#069C54" points="3.261,3.843 3.156,3.737 3.52,3.375 3.52,2.747 3.826,2.438 3.932,2.544 3.667,2.807      3.667,3.436    "></polygon></g></g><g><g><rect x="1.585" y="3.418" transform="matrix(0.7071 0.7071 -0.7071 0.7071 3.0378 -0.3476)" fill="#069C54" width="0.707" height="0.151"></rect></g></g></g></g><g id="SvgjsG1330" featurekey="jxYttZ-0" transform="matrix(2.4667961204956916,0,0,2.4667961204956916,93.53320387950431,14.110044628277251)" fill="#069C54"><path d="M12.7 16.46 l1.46 1.46 c-1.38 1.52 -3.36 2.28 -5.54 2.28 c-4.22 0 -7.62 -3.34 -7.62 -7.7 c0 -4.34 3.4 -7.68 7.62 -7.68 c2.18 0 4.16 0.76 5.56 2.3 l-1.46 1.46 c-0.88 -1.28 -2.48 -1.92 -4.1 -1.92 c-3.1 0 -5.4 2.76 -5.4 5.84 c0 2.82 2.08 5.86 5.4 5.86 c1.44 0 3.28 -0.56 4.08 -1.9 z M21.32 11.64 c-1.7 0 -3.08 1.42 -3.08 3.44 c0 2 1.38 3.44 3.08 3.44 s3.08 -1.44 3.08 -3.44 c0 -2.02 -1.38 -3.44 -3.08 -3.44 z M21.32 9.94 c2.84 0 5.14 2.2 5.14 5.14 s-2.3 5.12 -5.14 5.12 s-5.14 -2.18 -5.14 -5.12 s2.3 -5.14 5.14 -5.14 z M28.26 15.08 c0 -2.94 2.1 -5.14 4.94 -5.14 c0.98 0 2.18 0.42 2.84 0.96 l0 -5.9 l2.08 0 l0 15 l-2.08 0 l0 -0.74 c-0.78 0.58 -1.86 0.94 -2.84 0.94 c-2.84 0 -4.94 -2.18 -4.94 -5.12 z M30.34 15.08 c0 2 1.38 3.44 3.06 3.44 c1.12 0 2.12 -0.52 2.64 -1.58 c0.28 -0.54 0.44 -1.18 0.44 -1.86 s-0.16 -1.32 -0.44 -1.88 c-0.52 -1.06 -1.52 -1.56 -2.64 -1.56 c-1.68 0 -3.06 1.42 -3.06 3.44 z M43.28 10.12 l0 9.88 l-2.06 0 l0 -9.88 l2.06 0 z M43.379999999999995 6.5 c0 0.64 -0.5 1.14 -1.14 1.14 c-0.62 0 -1.12 -0.5 -1.12 -1.14 c0 -0.62 0.5 -1.12 1.12 -1.12 c0.64 0 1.14 0.5 1.14 1.12 z M55.31999999999999 14.3 l0 5.7 l-2.06 0 l0 -5.5 c0 -2 -0.62 -2.88 -2.32 -2.88 c-1.92 0 -2.7 1.34 -2.7 3.08 l0 5.3 l-2.06 0 l0 -9.88 l2.06 0 l0 1.6 c0.28 -0.88 1.52 -1.68 2.7 -1.76 c2.68 -0.2 4.38 1.1 4.38 4.34 z M65.36 10.12 l2.06 0 l0 10.04 c0 2.94 -2.3 5.32 -5.14 5.32 c-1.48 0 -2.82 -0.66 -3.76 -1.7 l1.42 -1.28 c0.56 0.8 1.4 1.3 2.34 1.3 c1.7 0 3.08 -1.64 3.08 -3.64 l0 -0.92 c-0.66 0.54 -1.88 0.94 -2.84 0.94 c-2.84 0 -4.94 -2.18 -4.94 -5.12 s2.1 -5.14 4.94 -5.14 c0.96 0 2.06 0.36 2.84 0.96 l0 -0.76 z M62.72 18.5 c1.12 0 2.1 -0.52 2.64 -1.58 c0.28 -0.54 0.44 -1.18 0.44 -1.86 s-0.16 -1.32 -0.44 -1.88 c-0.54 -1.06 -1.52 -1.56 -2.64 -1.56 c-1.7 0 -3.08 1.42 -3.08 3.44 c0 2 1.38 3.44 3.08 3.44 z M75.5 20 l-1.14 0 l-5.34 -15 l2.36 0 l3.58 10.58 l3.78 -10.58 l1.14 0 l3.78 10.58 l3.58 -10.58 l2.38 0 l-5.34 15 l-1.14 0 l-3.82 -10.54 z M100.14 15.08 l0 0.74 l-7.78 0 c0 1.82 1.74 2.7 3.02 2.7 c0.94 0 1.98 -0.5 2.54 -1.3 l1.42 1.28 c-0.66 0.9 -1.74 1.7 -3.96 1.7 c-3.2 0 -5.16 -2.18 -5.16 -5.12 s1.9 -5.14 4.96 -5.14 s4.46 1.7 4.88 4.18 c0.06 0.32 0.08 0.64 0.08 0.96 z M92.4 14.120000000000001 l5.58 0 c0 -1.6 -1.28 -2.48 -2.8 -2.48 s-2.78 1.02 -2.78 2.48 z M107.1 9.94 c2.84 0 4.94 2.2 4.94 5.14 s-2.1 5.12 -4.94 5.12 c-0.96 0 -2.06 -0.36 -2.84 -0.94 l0 0.74 l-2.06 0 l0 -15 l2.06 0 l0 5.9 c0.66 -0.54 1.88 -0.96 2.84 -0.96 z M106.89999999999999 18.52 c1.7 0 3.08 -1.44 3.08 -3.44 c0 -2.02 -1.38 -3.44 -3.08 -3.44 c-1.12 0 -2.1 0.5 -2.64 1.56 c-0.28 0.56 -0.44 1.2 -0.44 1.88 s0.16 1.32 0.44 1.86 c0.54 1.06 1.52 1.58 2.64 1.58 z"></path></g></svg>