<svg xmlns="http://www.w3.org/2000/svg" height="105" viewBox="0 0 1002 105" width="1002">
    <g fill="none">
        <g fill="#1d1d1b" transform="translate(234.7)">
            <path d="m0 80.6v-73.2h29.8c4 0 7.6 1 10.8 3s5.8 4.7 7.8 8.1 2.9 7.2 2.9 11.4-1 8-2.9 11.4c-2 3.4-4.5 6.2-7.8 8.2-3.2 2.1-6.9 3.1-10.8 3.1h-18.5v28zm11.3-38.9h18.3c1.9 0 3.6-.5 5.1-1.6s2.8-2.5 3.7-4.3 1.4-3.8 1.4-5.9c0-3.2-1-5.9-3-8.2s-4.4-3.4-7.2-3.4h-18.3z"/>
            <path d="m62.5 80.6v-54.9h10.9v10.4c1.6-3.3 3.9-6 7-8.2s6.3-3.3 9.7-3.3c1.2 0 2.3.1 3.4.3s1.9.5 2.6.7l-2.8 11.7c-.8-.3-1.8-.7-2.8-.9s-2-.4-3-.4c-2.5 0-4.8.6-7 1.9-2.1 1.2-3.9 3-5.2 5.1s-2 4.6-2 7.2v30.3h-10.8z"/>
            <path d="m126 81.7c-5.4 0-10.2-1.2-14.4-3.7s-7.5-5.9-10-10.1c-2.4-4.3-3.7-9.2-3.7-14.7s1.2-10.4 3.7-14.7c2.4-4.3 5.8-7.7 10-10.1 4.2-2.5 9-3.7 14.4-3.7 5.3 0 10 1.2 14.3 3.7 4.2 2.5 7.5 5.8 10 10.1 2.4 4.3 3.7 9.2 3.7 14.7s-1.2 10.4-3.7 14.7c-2.4 4.3-5.8 7.7-10 10.1-4.3 2.4-9 3.7-14.3 3.7zm0-9.9c3.3 0 6.2-.8 8.8-2.4s4.6-3.9 6.1-6.7 2.2-6 2.1-9.6c.1-3.6-.6-6.8-2.1-9.7-1.5-2.8-3.5-5-6.1-6.6s-5.5-2.4-8.8-2.4-6.2.8-8.8 2.5-4.6 3.9-6.1 6.7-2.2 6-2.1 9.6c-.1 3.6.6 6.7 2.1 9.6 1.5 2.8 3.5 5.1 6.1 6.7s5.5 2.3 8.8 2.3z"/>
            <path d="m189.1 104.6c-3.9 0-7.8-.6-11.7-1.8s-7-2.8-9.4-4.8l4-8.4c2.1 1.6 4.7 2.9 7.8 3.9s6.2 1.5 9.2 1.5c11.6 0 17.5-5.5 17.5-16.5v-6.6c-1 1.8-2.4 3.3-4.3 4.8s-4.1 2.7-6.5 3.6-4.9 1.4-7.4 1.4c-5.2 0-9.9-1.2-14-3.7s-7.3-5.9-9.7-10.1c-2.4-4.3-3.6-9.2-3.6-14.7s1.2-10.4 3.5-14.7 5.5-7.7 9.6-10.1c4.1-2.5 8.7-3.7 13.8-3.7 3.8 0 7.4.9 10.8 2.6 3.3 1.8 5.9 3.7 7.7 6v-7.4h10.9v51.6c0 8.7-2.5 15.5-7.5 20.2-5 4.6-11.9 6.9-20.7 6.9zm.4-32.9c3.4 0 6.5-.8 9.1-2.4s4.7-3.8 6.2-6.6 2.2-6 2.2-9.6-.8-6.8-2.2-9.7c-1.5-2.8-3.6-5-6.2-6.6s-5.6-2.4-9-2.4c-3.3 0-6.3.8-8.9 2.5-2.6 1.6-4.7 3.9-6.2 6.7s-2.2 6-2.2 9.6.8 6.7 2.2 9.6c1.5 2.8 3.6 5 6.2 6.6 2.5 1.5 5.5 2.3 8.8 2.3z"/>
            <path d="m231.4 80.6v-54.9h10.9v10.4c1.6-3.3 3.9-6 7-8.2s6.3-3.3 9.7-3.3c1.2 0 2.3.1 3.4.3s1.9.5 2.6.7l-2.8 11.7c-.8-.3-1.8-.7-2.8-.9s-2-.4-3-.4c-2.5 0-4.8.6-7 1.9-2.1 1.2-3.9 3-5.2 5.1s-2 4.6-2 7.2v30.3h-10.8z"/>
            <path d="m295.8 81.7c-5.7 0-10.7-1.2-15-3.6-4.4-2.4-7.8-5.7-10.2-9.9-2.5-4.2-3.7-9-3.7-14.4 0-5.8 1.2-10.8 3.6-15.2s5.7-7.8 9.9-10.2c4.2-2.5 9-3.8 14.5-3.8 4.7.1 9 1.2 12.8 3.6 3.8 2.3 6.8 5.4 9 9.4s3.2 8.5 3.1 13.7l-.1 4.6h-42c.6 5 2.7 8.9 6.1 11.8 3.5 2.9 7.8 4.3 13.1 4.3 2.7 0 5.2-.4 7.6-1.4 2.3-.9 4.9-2.5 7.6-4.9l5.4 7.6c-2.6 2.5-5.8 4.6-9.8 6.1-4.1 1.5-8 2.3-11.9 2.3zm-1-47.3c-9.4 0-15 4.2-16.8 12.8h30.7v-.7c-.2-2.3-1-4.4-2.3-6.2s-3-3.2-5-4.3-4.2-1.6-6.6-1.6z"/>
            <path d="m348.7 81.7c-4.6 0-8.8-.8-12.5-2.4s-6.8-4-9.2-7.1l7.3-6.3c2.1 2.4 4.4 4.2 6.8 5.3s5.3 1.6 8.4 1.6c2.6 0 4.7-.6 6.3-1.9 1.6-1.2 2.5-3 2.5-5.1 0-1.8-.7-3.3-2-4.4-1.3-1-4.4-2.2-9.1-3.5-4-1-7.3-2.2-9.9-3.6-2.6-1.3-4.6-2.8-6-4.5-2-2.5-3-5.7-3-9.5 0-3.1.9-5.8 2.6-8.2s4.1-4.2 7-5.6c3-1.4 6.3-2 10-2 3.9 0 7.7.8 11.3 2.4 3.7 1.6 6.6 3.7 8.8 6.4l-6.2 6.8c-2-2-4.3-3.6-6.7-4.9-2.5-1.2-4.7-1.8-6.7-1.8-3 0-5.3.6-7 1.7-1.6 1.1-2.5 2.8-2.5 4.9.1 1.9.8 3.4 2.3 4.6s4.6 2.4 9.3 3.5c3.5.9 6.4 1.9 8.6 3 2.3 1.1 4.1 2.3 5.4 3.7 1.4 1.3 2.4 2.9 2.9 4.6.6 1.7.8 3.7.8 5.8 0 3.1-.9 5.9-2.7 8.4s-4.2 4.4-7.2 5.8c-2.6 1.6-5.9 2.3-9.6 2.3z"/>
            <path d="m397.7 81.7c-4.6 0-8.8-.8-12.5-2.4s-6.8-4-9.2-7.1l7.3-6.3c2.1 2.4 4.4 4.2 6.8 5.3s5.3 1.6 8.4 1.6c2.6 0 4.7-.6 6.3-1.9 1.6-1.2 2.5-3 2.5-5.1 0-1.8-.7-3.3-2-4.4-1.3-1-4.4-2.2-9.1-3.5-4-1-7.3-2.2-9.9-3.6-2.6-1.3-4.6-2.8-6-4.5-2-2.5-3-5.7-3-9.5 0-3.1.9-5.8 2.6-8.2s4.1-4.2 7-5.6c3-1.4 6.3-2 10-2 3.9 0 7.7.8 11.3 2.4 3.7 1.6 6.6 3.7 8.8 6.4l-6.2 6.8c-2-2-4.3-3.6-6.7-4.9-2.5-1.2-4.7-1.8-6.7-1.8-3 0-5.3.6-7 1.7-1.6 1.1-2.5 2.8-2.5 4.9.1 1.9.8 3.4 2.3 4.6s4.6 2.4 9.3 3.5c3.5.9 6.4 1.9 8.6 3 2.3 1.1 4.1 2.3 5.4 3.7 1.4 1.3 2.4 2.9 2.9 4.6.6 1.7.8 3.7.8 5.8 0 3.1-.9 5.9-2.7 8.4s-4.2 4.4-7.2 5.8c-2.5 1.6-5.9 2.3-9.6 2.3z"/>
            <path d="m431.2 80.6v-73.2h29.8c4 0 7.6 1 10.8 3s5.8 4.7 7.8 8.1 2.9 7.2 2.9 11.4-1 8-2.9 11.4c-2 3.4-4.5 6.2-7.8 8.2-3.2 2.1-6.8 3.1-10.8 3.1h-18.5v28zm11.3-38.9h18.3c1.9 0 3.6-.5 5.1-1.6s2.8-2.5 3.7-4.3 1.4-3.8 1.4-5.9c0-3.2-1-5.9-3-8.2s-4.4-3.4-7.2-3.4h-18.3z"/>
            <path d="m500.9 13.6c-2.3 0-4.1-.6-5.3-1.8s-1.9-2.9-1.9-5c0-2 .7-3.7 1.9-4.9 1.3-1.3 3-1.9 5.3-1.9s4.1.6 5.3 1.8c1.3 1.2 1.9 2.9 1.9 5 0 2-.7 3.7-1.9 4.9-1.3 1.3-3.1 1.9-5.3 1.9zm-5.2 67v-54.9h10.8v54.9z"/>
            <path d="m545 81.7c-5.1 0-9.6-1.3-13.7-3.8-4-2.5-7.2-5.9-9.5-10.2s-3.5-9.2-3.5-14.5 1.2-10.2 3.5-14.5 5.5-7.7 9.5-10.2 8.6-3.8 13.7-3.8c4.9 0 9.3 1 13.3 3s7 4.7 9.2 8.1l-6 7.3c-1.7-2.4-4-4.5-7-6.2s-5.8-2.5-8.5-2.5c-3.3 0-6.3.8-8.9 2.5s-4.7 3.9-6.2 6.7c-1.5 2.9-2.3 6.1-2.3 9.6 0 3.6.8 6.7 2.4 9.6 1.6 2.8 3.7 5.1 6.4 6.7s5.6 2.5 8.8 2.5c5.7 0 10.8-2.8 15.4-8.4l6 7.3c-2.2 3.1-5.4 5.7-9.6 7.7s-8.5 3.1-13 3.1z"/>
            <path d="m583.4 80.6v-44.4h-11.4v-10.5h11.4v-14h10.8v14h12.8v10.5h-12.8v44.4z"/>
            <path d="m634.9 81.7c-5.9 0-10.5-2-14-6s-5.2-9.3-5.2-16.1v-33.9h10.8v30.9c0 4.8 1.1 8.6 3.4 11.4s5.4 4.2 9.5 4.2c4 0 7.3-1.3 9.9-3.8s3.9-5.8 3.9-9.7v-33h10.8v54.9h-10.8v-8.8c-1.8 2.9-4.3 5.3-7.6 7.1s-6.8 2.8-10.7 2.8z"/>
            <path d="m677.9 80.6v-54.9h10.9v10.4c1.6-3.3 3.9-6 7-8.2s6.3-3.3 9.7-3.3c1.2 0 2.3.1 3.4.3s1.9.5 2.6.7l-2.8 11.7c-.8-.3-1.8-.7-2.8-.9s-2-.4-3-.4c-2.5 0-4.8.6-7 1.9-2.1 1.2-3.9 3-5.2 5.1s-2 4.6-2 7.2v30.3h-10.8z"/>
            <path d="m742.3 81.7c-5.7 0-10.7-1.2-15-3.6-4.4-2.4-7.8-5.7-10.2-9.9-2.5-4.2-3.7-9-3.7-14.4 0-5.8 1.2-10.8 3.6-15.2s5.7-7.8 9.9-10.2c4.2-2.5 9-3.8 14.5-3.8 4.7.1 9 1.2 12.8 3.6 3.8 2.3 6.8 5.4 9 9.4s3.2 8.5 3.1 13.7l-.1 4.6h-42c.6 5 2.7 8.9 6.1 11.8 3.5 2.9 7.8 4.3 13.1 4.3 2.7 0 5.2-.4 7.6-1.4 2.3-.9 4.9-2.5 7.6-4.9l5.4 7.6c-2.6 2.5-5.8 4.6-9.8 6.1-4.1 1.5-8 2.3-11.9 2.3zm-1-47.3c-9.4 0-15 4.2-16.8 12.8h30.7v-.7c-.2-2.3-1-4.4-2.3-6.2s-3-3.2-5-4.3-4.2-1.6-6.6-1.6z"/>
        </g>
        <g fill="#4154ff" transform="translate(.978877 6.2)">
            <path d="m177.421123 18.5c3.2 10.9 1.9 22.6-3.9 32.8l-8.5 14.6-3.7 6.5c-3.7 6.5-10.6 10.5-18.1 10.5-7.5 0-14.4-4-18.1-10.5l-33.1000002-58.3c-5-8.7-14.2-14.1-24.2-14.1 5.8 3.9 10.6 9.1 14 15.2l35.2000002 61.8c5.4 9.4 15.3 15.2 26.2 15.2 10.8 0 20.8-5.8 26.2-15.2l10.7-18.8c0-.1.1-.1.1-.1 7.2-12.7 5.9-28.3-2.8-39.6z"/>
            <path d="m102.721123 8 .8 1.4h33c7.5 0 14.2 3.9 18 10.4s3.8 14.2.1 20.8l-16.1 28.5c1.4.9 3.1 1.5 4.8 1.5 3.1 0 5.9-1.6 7.4-4.3l12.1-21.1c5.4-9.4 5.3-20.7-.1-30.1-5.5-9.4-15.2-15-26.1-15h-39.9000002c2.3 2.3 4.3000002 5 6.0000002 7.9z"/>
            <path d="m7.52112275 73.8c-3.2-10.9-1.9-22.6 3.90000005-32.8l8.4-14.6 3.7-6.5c3.7-6.5 10.6-10.5 18.1-10.5 7.5 0 14.4 4 18.1 10.5l33.2 58.2c4.9 8.7 14.2000002 14.1 24.2000002 14.1-5.8-3.9-10.6-9.1-14-15.2l-35.3000002-61.7c-5.3-9.4-15.3-15.3-26.1-15.3-10.8 0-20.8 5.8-26.2 15.2l-10.80000005 18.8s-.1.1-.1.1c-7.2 12.7-5.8 28.4 2.9 39.7z"/>
            <path d="m82.2211228 84.2-.8-1.4h-33c-7.5 0-14.2-3.9-18-10.4s-3.8-14.2-.1-20.8l16.1-28.5c-1.4-1-3-1.5-4.8-1.5-3 0-5.9 1.6-7.4 4.3l-12 21.2c-5.4 9.4-5.3 20.7.1 30.1s15.2 15 26.1 15h39.8c-2.3-2.4-4.3-5-6-8z"/>
        </g>
    </g>
</svg>