<svg xmlns="http://www.w3.org/2000/svg" width="166" height="34" viewBox="0 0 166 34" fill="none">
<path style="fill: black" d="M5.87855 18.9279C4.69618 18.3185 3.91637 17.7887 3.55882 17.3509C3.21656 16.9404 3.05024 16.5254 3.05024 16.0825C3.05024 15.586 3.2485 15.1607 3.65657 14.7826C4.07057 14.3987 4.55519 14.2121 5.13826 14.2121C6.0808 14.2121 7.07153 14.7106 8.08304 15.6938C8.1355 15.7448 8.2031 15.771 8.27909 15.7717C8.3522 15.7706 8.42173 15.7403 8.47267 15.6877L9.75857 14.3572C9.80938 14.3045 9.83719 14.2339 9.83609 14.1607C9.83471 14.0875 9.80456 14.0177 9.7521 13.9669C8.25569 12.52 6.73752 11.7863 5.23931 11.7863C3.9406 11.7863 2.84841 12.2071 1.99274 13.0372C1.13487 13.8697 0.699813 14.9279 0.699813 16.1828C0.699813 17.1436 0.972415 18.0113 1.51018 18.7616C2.04671 19.5105 3.01527 20.2402 4.47218 20.9927C5.74087 21.6407 6.56005 22.1765 6.90507 22.5831C7.23798 22.9842 7.39975 23.4273 7.39975 23.9377C7.39975 24.5587 7.15275 25.0864 6.64459 25.5511C6.12898 26.0224 5.52004 26.2518 4.78291 26.2518C3.72486 26.2518 2.70068 25.7005 1.73859 24.6133C1.68627 24.5543 1.61124 24.5205 1.53249 24.5205C1.53235 24.5205 1.53221 24.5205 1.53194 24.5205C1.45305 24.5206 1.37788 24.5547 1.32583 24.6141L0.0687001 26.0449C-0.0188627 26.1445 -0.0231291 26.292 0.0582382 26.3967C0.616658 27.1144 1.33079 27.6851 2.18108 28.0927C3.03028 28.4999 3.93427 28.7063 4.86827 28.7063C6.28167 28.7063 7.47781 28.2319 8.42379 27.296C9.3706 26.3592 9.85068 25.2003 9.85068 23.8518C9.85068 22.8908 9.56816 22.0131 9.00851 21.24C8.44293 20.4839 7.41944 19.7277 5.87855 18.9279Z" fill="white"/>
<path style="fill: black" d="M25.2767 12.1867H23.234C23.082 12.1867 22.9586 12.3103 22.9586 12.4625V19.731C22.9586 21.6381 22.8624 22.894 22.6727 23.463C22.3976 24.2792 21.8911 24.9474 21.1672 25.4491C20.4404 25.953 19.5376 26.2085 18.484 26.2085C17.4298 26.2085 16.5123 25.9455 15.7569 25.4269C15.0081 24.913 14.4931 24.2022 14.228 23.3178C14.0451 22.6788 13.9525 21.4719 13.9525 19.7308V12.4624C13.9525 12.3101 13.8291 12.1866 13.6771 12.1866H11.6771C11.5251 12.1866 11.4017 12.3101 11.4017 12.4624V19.9598C11.4017 22.2018 11.6624 23.9129 12.1764 25.0459C12.6977 26.1941 13.4983 27.1015 14.5558 27.7431C15.609 28.3819 16.9332 28.7058 18.4913 28.7058C20.0497 28.7058 21.3692 28.3816 22.4133 27.7424C23.4609 27.1009 24.2561 26.2012 24.7768 25.0685C25.2912 23.9499 25.5521 22.2792 25.5521 20.1027V12.4622C25.5521 12.3101 25.4287 12.1867 25.2767 12.1867Z" fill="white"/>
<path style="fill: black" d="M36.1564 11.7863C34.8516 11.7863 33.6513 12.0714 32.5885 12.6338C31.7384 13.0836 30.96 13.7197 30.2667 14.5298V12.4626C30.2667 12.3104 30.1433 12.1868 29.9913 12.1868H27.9914C27.8394 12.1868 27.7161 12.3104 27.7161 12.4626V33.7243C27.7161 33.8766 27.8394 34.0001 27.9914 34.0001H29.9913C30.1433 34.0001 30.2667 33.8766 30.2667 33.7243V26.0844C31.0008 26.862 31.8102 27.4727 32.6803 27.9049C33.7507 28.4366 34.9396 28.7062 36.2134 28.7062C38.478 28.7062 40.4384 27.8718 42.0403 26.2264C43.6405 24.5828 44.452 22.5563 44.452 20.2033C44.452 17.8972 43.6331 15.8969 42.0179 14.2578C40.4017 12.6179 38.4296 11.7863 36.1564 11.7863ZM41.8726 20.2678C41.8726 21.3108 41.6015 22.3233 41.0671 23.2769C40.5329 24.2298 39.8066 24.9815 38.9083 25.511C38.0103 26.0405 37.0383 26.309 36.0197 26.309C34.9798 26.309 33.9774 26.0419 33.04 25.5153C32.1059 24.9903 31.3791 24.271 30.8796 23.3773C30.3779 22.4805 30.1238 21.4536 30.1238 20.325C30.1238 18.6074 30.6943 17.1529 31.8193 16.0017C32.9433 14.8524 34.3467 14.2695 35.991 14.2695C37.0481 14.2695 38.0373 14.5334 38.931 15.0538C39.824 15.574 40.545 16.3158 41.0739 17.2588C41.604 18.2035 41.8726 19.2158 41.8726 20.2678Z" fill="white"/>
<path style="fill: black" d="M53.9706 11.7863C51.3197 11.7863 49.1734 12.8136 47.5913 14.8393C46.3475 16.427 45.7168 18.2606 45.7168 20.2892C45.7168 22.4459 46.4608 24.4055 47.9282 26.1135C49.4059 27.8338 51.4774 28.7062 54.0851 28.7062C55.2572 28.7062 56.3247 28.5243 57.258 28.1656C58.1918 27.8067 59.044 27.2756 59.7909 26.5873C60.5359 25.9007 61.2003 24.9888 61.7657 23.8768C61.8342 23.7422 61.7819 23.5777 61.6484 23.5075L59.9629 22.6204C59.833 22.5523 59.6737 22.5974 59.5987 22.7225C59.0061 23.7097 58.4521 24.4306 57.9518 24.8655C57.4549 25.2977 56.8414 25.6499 56.1281 25.9124C55.4137 26.1755 54.6685 26.3089 53.9133 26.3089C52.3585 26.3089 51.0345 25.7537 49.9778 24.6587C48.9751 23.6195 48.4233 22.282 48.3352 20.6794H62.0346C62.108 20.6794 62.1785 20.65 62.2303 20.5978C62.2819 20.5455 62.3107 20.4746 62.31 20.4011C62.29 18.2209 61.6929 16.3733 60.535 14.9104C58.9051 12.8374 56.6965 11.7863 53.9706 11.7863ZM48.6211 18.3966C49.0102 17.1967 49.5571 16.2767 50.249 15.6586C51.2888 14.7274 52.5503 14.2551 53.9989 14.2551C54.8788 14.2551 55.7298 14.4439 56.5288 14.816C57.3248 15.1872 57.9725 15.681 58.4535 16.2834C58.8815 16.8194 59.2245 17.5292 59.4752 18.3966H48.6211Z" fill="white"/>
<path style="fill: black" d="M72.4128 12.3506C71.745 11.976 71.1037 11.7861 70.5066 11.7861C69.7223 11.7861 68.9602 12.025 68.2417 12.4964C67.7227 12.8368 67.2193 13.308 66.7394 13.9021V12.4625C66.7394 12.3102 66.616 12.1867 66.464 12.1867H64.4213C64.2693 12.1867 64.1459 12.3102 64.1459 12.4625V28.0296C64.1459 28.1819 64.2693 28.3054 64.4213 28.3054H66.464C66.616 28.3054 66.7394 28.1819 66.7394 28.0296V22.7642C66.7394 20.1016 66.8609 18.3165 67.1006 17.459C67.4081 16.3621 67.8562 15.5473 68.4322 15.037C68.9964 14.5371 69.5836 14.2835 70.1781 14.2835C70.4244 14.2835 70.7434 14.3673 71.1265 14.5328C71.2517 14.5871 71.398 14.5411 71.4697 14.4247L72.5125 12.7363C72.552 12.6723 72.5637 12.595 72.5448 12.5222C72.5259 12.4492 72.4782 12.3873 72.4128 12.3506Z" fill="white"/>
<path style="fill: black" d="M82.7231 12.2141C82.1351 11.93 81.5614 11.7861 81.0179 11.7861C80.2517 11.7861 79.537 12.0038 78.8936 12.4334C78.5108 12.689 78.1715 13.0173 77.879 13.4146V12.4626C77.879 12.3104 77.7556 12.1868 77.6036 12.1868H74.2608C74.1088 12.1868 73.9854 12.3104 73.9854 12.4626V28.0297C73.9854 28.182 74.1088 28.3055 74.2608 28.3055H78.1322C78.2841 28.3055 78.4075 28.182 78.4075 28.0297V21.729L78.3932 20.976C78.3932 18.8587 78.5906 17.4308 78.9798 16.732C79.3448 16.0763 79.7638 15.7575 80.2606 15.7575C80.5114 15.7575 80.8496 15.8632 81.2661 16.0717C81.3366 16.1069 81.4182 16.1103 81.4915 16.0811C81.5645 16.0519 81.6214 15.9928 81.6483 15.9188L82.8625 12.5564C82.9105 12.4233 82.8504 12.2755 82.7231 12.2141Z" fill="white"/>
<path style="fill: black" d="M90.677 11.7861C88.306 11.7861 86.3053 12.606 84.7302 14.223C83.1568 15.8381 82.3591 17.8935 82.3591 20.332C82.3591 22.7151 83.1598 24.7277 84.7392 26.3143C86.3188 27.9014 88.3887 28.7061 90.8914 28.7061C92.4975 28.7061 93.9079 28.4152 95.0832 27.8412C96.2628 27.2654 97.2881 26.3666 98.1306 25.1697C98.1775 25.1031 98.1925 25.0189 98.1717 24.9401C98.1509 24.8613 98.0963 24.7957 98.0225 24.7611L94.7368 23.2158C94.633 23.167 94.5102 23.1878 94.4279 23.2678C93.4384 24.2318 92.2391 24.7207 90.8629 24.7207C89.7153 24.7207 88.7627 24.4123 88.0317 23.8042C87.3789 23.2616 86.9455 22.5387 86.7405 21.6525H98.9341C99.0841 21.6525 99.2065 21.5323 99.2094 21.3821L99.2237 20.6328C99.2237 17.995 98.4234 15.8384 96.8452 14.223C95.2648 12.6059 93.1896 11.7861 90.677 11.7861ZM87.016 18.0243C87.3798 17.3142 87.7677 16.8038 88.1722 16.5042C88.9403 15.9326 89.8479 15.6429 90.8699 15.6429C91.8081 15.6429 92.6425 15.8999 93.3497 16.407C93.9474 16.8354 94.3822 17.3783 94.6458 18.0245H87.016V18.0243Z" fill="white"/>
<path style="fill: black" d="M116.875 12.187H112.975C112.823 12.187 112.699 12.3105 112.699 12.4628V13.5417C112.112 13.0288 111.48 12.6252 110.815 12.3381C109.966 11.972 109.046 11.7863 108.081 11.7863C105.984 11.7863 104.178 12.591 102.713 14.1785C101.254 15.7597 100.514 17.8109 100.514 20.2748C100.514 22.6546 101.279 24.6751 102.786 26.28C104.298 27.89 106.118 28.7062 108.195 28.7062C109.121 28.7062 109.994 28.5378 110.791 28.2057C111.427 27.94 112.067 27.5363 112.699 27.0021V28.0298C112.699 28.182 112.823 28.3056 112.975 28.3056H116.875C117.027 28.3056 117.15 28.182 117.15 28.0298V12.4628C117.15 12.3105 117.027 12.187 116.875 12.187ZM112.871 20.2177C112.871 21.5215 112.489 22.5866 111.736 23.3834C110.977 24.1871 110.046 24.5777 108.889 24.5777C107.772 24.5777 106.857 24.1804 106.093 23.363C105.335 22.552 104.95 21.4986 104.95 20.2321C104.95 18.9752 105.328 17.9338 106.072 17.1367C106.822 16.3339 107.739 15.9435 108.875 15.9435C110.041 15.9435 110.978 16.3277 111.737 17.1181C112.489 17.9007 112.871 18.9436 112.871 20.2177Z" fill="white"/>
<path style="fill: black" d="M131.971 12.738C130.709 12.1063 129.269 11.7861 127.691 11.7861C125.986 11.7861 124.421 12.1629 123.039 12.9063C121.653 13.6519 120.557 14.6924 119.783 15.9988C119.008 17.3048 118.616 18.7531 118.616 20.3033C118.616 22.5415 119.422 24.5215 121.013 26.1884C122.607 27.859 124.835 28.7061 127.634 28.7061C130.748 28.7061 133.195 27.5743 134.909 25.3419C134.955 25.2818 134.974 25.2054 134.963 25.1305C134.951 25.0556 134.909 24.989 134.846 24.9461L131.771 22.8372C131.653 22.7562 131.493 22.7794 131.402 22.8902C130.476 24.0255 129.213 24.5774 127.539 24.5774C126.208 24.5774 125.122 24.1805 124.312 23.3976C123.493 22.6067 123.095 21.6109 123.095 20.3531C123.095 19.0573 123.509 18.0264 124.362 17.2016C125.206 16.3857 126.332 15.9719 127.711 15.9719C128.471 15.9719 129.141 16.0899 129.7 16.3227C130.258 16.555 130.836 16.9811 131.416 17.5893C131.503 17.6794 131.638 17.7005 131.748 17.6403L134.995 15.8518C135.063 15.8143 135.112 15.7495 135.13 15.6736C135.148 15.5978 135.133 15.5178 135.089 15.4535C134.285 14.285 133.235 13.3713 131.971 12.738Z" fill="white"/>
<path style="fill: black" d="M145.15 11.7856C144.326 11.7856 143.502 11.9591 142.7 12.3014C142.06 12.5744 141.417 12.9611 140.783 13.4536V6.45267C140.783 6.30043 140.659 6.17688 140.507 6.17688H136.636C136.484 6.17688 136.361 6.30043 136.361 6.45267V28.0292C136.361 28.1814 136.484 28.305 136.636 28.305H140.507C140.659 28.305 140.783 28.1814 140.783 28.0292V21.7766C140.783 20.1375 140.838 19.0814 140.947 18.6364C141.151 17.7884 141.521 17.1125 142.044 16.6278C142.563 16.1477 143.168 15.9142 143.893 15.9142C144.438 15.9142 144.899 16.0542 145.262 16.3304C145.625 16.6058 145.887 17.0372 146.041 17.6131C146.206 18.2256 146.289 19.434 146.289 21.2043V28.0292C146.289 28.1814 146.412 28.305 146.564 28.305H150.407C150.559 28.305 150.683 28.1814 150.683 28.0292V17.7416C150.683 15.8822 150.2 14.4454 149.246 13.4698C148.14 12.3522 146.762 11.7856 145.15 11.7856Z" fill="white"/>
<path style="fill: black" d="M151.957 2.9606L146.329 0.0311445C146.244 -0.0133958 146.142 -0.00994806 146.06 0.040108C145.977 0.0901641 145.927 0.17952 145.927 0.275771V2.06497C145.927 2.16784 145.984 2.26229 146.075 2.30959L149.285 3.98061L146.075 5.65149C145.984 5.69893 145.927 5.79325 145.927 5.89612V7.67897C145.927 7.77536 145.977 7.86471 146.06 7.91463C146.103 7.94124 146.153 7.95476 146.202 7.95476C146.246 7.95476 146.29 7.94442 146.329 7.92359L151.957 4.994C152.048 4.94657 152.105 4.85225 152.105 4.74938V3.20522C152.106 3.10249 152.048 3.00803 151.957 2.9606Z" fill="white"/>
<path style="fill: black" d="M158.904 2.9606L153.276 0.0311445C153.191 -0.0133958 153.089 -0.00994806 153.007 0.040108C152.924 0.0901641 152.874 0.17952 152.874 0.275771V2.06497C152.874 2.16784 152.931 2.26229 153.022 2.30959L156.232 3.98061L153.022 5.65149C152.931 5.69893 152.874 5.79325 152.874 5.89612V7.67897C152.874 7.77536 152.924 7.86471 153.007 7.91463C153.05 7.94124 153.1 7.95476 153.149 7.95476C153.193 7.95476 153.237 7.94442 153.276 7.92359L158.904 4.994C158.995 4.94657 159.052 4.85225 159.052 4.74938V3.20522C159.053 3.10249 158.995 3.00803 158.904 2.9606Z" fill="white"/>
<path style="fill: black" d="M165.852 2.9606L160.224 0.0311445C160.139 -0.0133958 160.036 -0.00994806 159.954 0.040108C159.872 0.0901641 159.822 0.17952 159.822 0.275771V2.06497C159.822 2.16784 159.879 2.26229 159.97 2.30959L163.18 3.98061L159.97 5.65149C159.879 5.69893 159.822 5.79325 159.822 5.89612V7.67897C159.822 7.77536 159.872 7.86471 159.954 7.91463C159.998 7.94124 160.047 7.95476 160.097 7.95476C160.14 7.95476 160.184 7.94442 160.224 7.92359L165.852 4.994C165.943 4.94657 166 4.85225 166 4.74938V3.20522C166 3.10249 165.943 3.00803 165.852 2.9606Z" fill="white"/>
</svg>